<svg id="Ebene_1" data-name="Ebene 1" fill="#1E6FD9" xmlns="http://www.w3.org/2000/svg" width="781.21359" height="248.93071" viewBox="0 0 781.21359 248.93071"><path d="M0,195.96663V58.25919H28.86559V81.03443h1.32324A45.40347,45.40347,0,0,1,43.82639,62.49614q9.13876-7.40928,25.02518-7.41359,21.18369,0,32.97108,13.90264,11.77986,13.90371,11.78416,39.59159v87.38985H84.74122V112.28357q0-32.3073-25.95188-32.3073A42.38414,42.38414,0,0,0,47.79826,81.431a31.20371,31.20371,0,0,0-9.66568,4.37057,21.78042,21.78042,0,0,0-6.752,7.41574,21.32809,21.32809,0,0,0-2.515,10.59239v92.157Z"/><path d="M202.31775,199.14543a66.24968,66.24968,0,0,1-26.482-5.03219,54.801,54.801,0,0,1-19.86153-14.4328,64.63572,64.63572,0,0,1-12.5794-22.77524,95.58951,95.58951,0,0,1-4.36841-29.79229,95.64766,95.64766,0,0,1,4.36841-29.79229,64.70159,64.70159,0,0,1,12.5794-22.77309,54.90148,54.90148,0,0,1,19.86153-14.43279,66.21244,66.21244,0,0,1,26.482-5.03219q15.09659,0,26.61566,5.29511a53.047,53.047,0,0,1,19.19775,14.69788A63.99738,63.99738,0,0,1,259.6524,96.92408a90.41574,90.41574,0,0,1,3.83825,26.74711v10.85747H168.95013v4.47186q0,15.7916,9.40276,25.91524,9.39414,10.13118,26.87858,10.129,12.71085,0,21.44984-5.52355a48.34023,48.34023,0,0,0,14.82934-14.99959l16.95,16.73445q-7.68407,12.74643-22.24508,20.32057Q221.64912,199.14111,202.31775,199.14543Zm0-121.55272a34.54336,34.54336,0,0,0-13.63755,2.64648,30.223,30.223,0,0,0-10.59239,7.41575,33.35082,33.35082,0,0,0-6.75412,11.38762,42.749,42.749,0,0,0-2.38356,14.56425v1.8534h64.08661v-2.64648q0-15.89181-8.20882-25.55534Q216.61694,77.5927,202.31775,77.59271Z"/><path d="M271.17579,195.96663l48.462-69.6468L272.499,58.25919h33.36762l30.98407,47.934h.79308l31.77931-47.934h30.719l-47.13665,67.79556,47.93188,69.91188H367.56971l-31.7793-50.05035h-.79309l-33.10254,50.05035Z"/><path d="M459.72452,195.96663q-15.09333,0-22.77308-7.81228-7.68406-7.8069-7.68083-22.11147V81.82966H407.82077V58.25919h11.6527q7.14742,0,9.93076-3.17664,2.7801-3.17772,2.7801-10.32731V20.65461H458.1362V58.25919h28.8656V81.82966H458.1362v90.56865h26.74712v23.56832Z"/><path d="M523.54606,218.74188q-2.9191,14.033-10.19585,22.11146-7.28643,8.0752-23.17178,8.07737h-17.743l3.44172-18.00813h24.62864L531.75488,77.32763H509.24472l3.44387-18.00813h22.51017L541.024,30.18883q2.9094-14.033,10.19584-22.11146Q558.49985.00215,574.39165,0h20.91969l-3.44172,18.00813H564.06219l-8.4739,41.31137H582.3354l-3.44172,18.00813H552.14657Z"/><path d="M624.17478,59.3195l-16.95,84.21322a60.94647,60.94647,0,0,0-1.05816,7.81229q-.26832,3.84041-.26508,6.22181,0,11.39193,4.63349,17.215,4.63242,5.82527,15.75819,5.82527,14.033,0,24.62864-10.85746a64.80281,64.80281,0,0,0,11.91562-17.08143,75.73047,75.73047,0,0,0,6.09036-17.08143L684.28736,59.3195h20.39169l-23.83341,118.639H700.177l-3.44171,18.00812H678.197q-8.7379,0-13.1074-4.63349-4.37058-4.63242-4.37057-12.04924a40.36572,40.36572,0,0,1,1.06031-7.68082l.528-2.64864h-1.32324q-7.15067,15.63-16.94782,22.9067-9.80145,7.2832-24.09848,7.28429-17.47905,0-26.21911-10.06438-8.7379-10.06008-8.739-27.80528,0-3.70786.39869-8.211a80.46444,80.46444,0,0,1,1.45686-9.53207L603.78309,59.3195Z"/><path d="M743.87194,195.96663q-9.27129,0-13.90264-4.63349a16.2929,16.2929,0,0,1-4.63349-12.04924,34.15183,34.15183,0,0,1,.79524-6.35758L760.82191,0h20.39168L745.46241,177.95851H766.117l-3.44171,18.00812Z"/></svg>
